<?xml version="1.0" standalone="no"?>
<!DOCTYPE svg PUBLIC "-//W3C//DTD SVG 20010904//EN"
        "http://www.w3.org/TR/2001/REC-SVG-20010904/DTD/svg10.dtd">
<svg version="1.0" xmlns="http://www.w3.org/2000/svg"
     width="400.000000pt" height="400.000000pt" viewBox="0 0 400.000000 400.000000"
     preserveAspectRatio="xMidYMid meet">

    <g transform="translate(0.000000,400.000000) scale(0.100000,-0.100000)"
       fill="#1a237e" stroke="none">
        <path d="M2200 3370 c-86 -11 -155 -38 -202 -79 -24 -21 -53 -43 -65 -49 -30
-16 -110 -15 -169 3 -27 8 -52 15 -56 15 -5 0 -8 -97 -8 -215 l0 -215 83 0
c103 0 142 11 236 66 83 47 158 70 276 83 42 5 79 12 82 15 18 18 -168 158
-226 171 -17 4 -31 12 -31 18 0 12 118 130 170 170 l35 27 -35 -1 c-19 -1 -60
-5 -90 -9z"/>
        <path d="M1530 2864 l0 -456 -90 -167 c-117 -219 -206 -405 -222 -466 -23 -91
-81 -160 -181 -212 -40 -22 -86 -56 -113 -87 -60 -66 -141 -234 -193 -401 -44
-139 -112 -434 -103 -449 3 -5 194 -6 466 -3 254 4 871 7 1372 7 l912 0 -50
163 c-114 377 -195 591 -308 822 -123 252 -277 465 -337 465 -37 0 -76 -25
-126 -80 -92 -102 -115 -202 -69 -303 22 -49 92 -159 182 -285 32 -46 44 -70
32 -63 -35 18 -220 221 -331 361 -58 74 -128 158 -155 187 -42 46 -54 53 -87
53 -44 0 -30 11 -304 -229 -287 -250 -286 -255 -5 52 80 87 146 164 148 170 1
7 -65 120 -148 251 l-150 240 0 443 0 443 -70 0 -70 0 0 -456z"/>
    </g>
</svg>
